<?xml version="1.0" encoding="iso-8859-1"?>
<!-- Generator: Adobe Illustrator 19.0.0, SVG Export Plug-In . SVG Version: 6.00 Build 0)  -->
<svg version="1.1" id="Layer_1" xmlns="http://www.w3.org/2000/svg" xmlns:xlink="http://www.w3.org/1999/xlink" x="0px" y="0px"
	 viewBox="0 0 512 512" style="enable-background:new 0 0 512 512;" xml:space="preserve">
<circle style="fill:#FF7F4F;" cx="256" cy="256" r="256"/>
<path style="fill:#FF5419;" d="M265.333,55.674L179.8,420.374l91.095,91.183c120.084-6.892,217.978-96.542,237.53-212.794
	L265.333,55.674z"/>
<path style="fill:#FFFFFF;" d="M196.813,426.667h118.375c14.439,0,26.146-11.705,26.146-26.146V196.811
	c-0.002-14.439-11.707-26.145-26.146-26.145H196.813c-14.441,0-26.146,11.705-26.146,26.145V400.52
	C170.667,414.961,182.372,426.667,196.813,426.667z"/>
<path style="fill:#D3D3D3;" d="M315.189,170.667h-58.901v256h58.901c14.439,0,26.146-11.705,26.146-26.146V196.813
	C341.333,182.372,329.628,170.667,315.189,170.667z"/>
<rect x="170.667" y="256" style="fill:#38C6D9;" width="170.667" height="85.333"/>
<rect x="256.293" y="256" style="fill:#22AFBA;" width="85.04" height="85.333"/>
<path style="fill:#FFEDB5;" d="M222.384,146.963h67.232l-19.834-83.909c-1.51-6.391-7.216-10.905-13.783-10.905l0,0
	c-6.566,0-12.272,4.515-13.783,10.905L222.384,146.963z"/>
<path style="fill:#FEE187;" d="M269.783,63.054c-1.488-6.296-7.051-10.762-13.495-10.893v94.803h33.328L269.783,63.054z"/>
<path style="fill:#273B7A;" d="M207.731,170.667h96.539c4.76,0,8.62-3.86,8.62-8.62v-11.205c0-4.76-3.86-8.62-8.62-8.62h-96.539
	c-4.76,0-8.62,3.86-8.62,8.62v11.205C199.111,166.807,202.971,170.667,207.731,170.667z"/>
<path style="fill:#121149;" d="M304.269,142.222h-47.981v28.444h47.981c4.76,0,8.62-3.86,8.62-8.62v-11.205
	C312.889,146.082,309.029,142.222,304.269,142.222z"/>
<g>
</g>
<g>
</g>
<g>
</g>
<g>
</g>
<g>
</g>
<g>
</g>
<g>
</g>
<g>
</g>
<g>
</g>
<g>
</g>
<g>
</g>
<g>
</g>
<g>
</g>
<g>
</g>
<g>
</g>
</svg>
